# xmcd CD database file
#
# Track frame offsets:
#	150
#	3423
#	19259
#	34973
#	48065
#	62745
#	77091
#	95491
#	106751
#	119376
#
# Disc length: 1715 seconds
#
# Revision: 0
# Processed by: cddbd v1.5.2PL0 Copyright (c) Steve Scherf et al.
# Submitted via: CDex 1.70beta2
#
DISCID=7406b10a
DTITLE=Occidental Gypsy - Over Here
DYEAR=2010
DGENRE=Jazz
TTITLE0=Veneto
TTITLE1=Con Pasion
TTITLE2=Four Letter Word
TTITLE3=Occidental Stomp
TTITLE4=Another Rainy Day
TTITLE5=Thriller
TTITLE6=Betty's Bossa
TTITLE7=I Miss You
TTITLE8=Gypsy Blues
TTITLE9=Panamanian Express
EXTD=YEAR: 2010
EXTT0=
EXTT1=
EXTT2=
EXTT3=
EXTT4=
EXTT5=
EXTT6=
EXTT7=
EXTT8=
EXTT9=
PLAYORDER=
